<?xml version="1.0" standalone="no"?>
<svg xmlns="http://www.w3.org/2000/svg" xmlns:xlink="http://www.w3.org/1999/xlink" height="1080px" width="1920px">
  <defs>
    <pattern id="doodad" width="40" height="40" viewBox="0 0 40 40" patternUnits="userSpaceOnUse" patternTransform="rotate(135)">
      <rect width="100%" height="100%" fill="rgba(0, 0, 0,1)"/>
      <path d="M-20 12l20-20l20 20l20-20l20 20l20-20l20 20v-4l-20-20l-20 20l-20-20l-20 20l-20-20l-20 20zM-20-28l20-20l20 20l20-20l20 20l20-20l20 20v-4l-20-20l-20 20l-20-20l-20 20l-20-20l-20 20zM-20 52l20-20l20 20l20-20l20 20l20-20l20 20v-4l-20-20l-20 20l-20-20l-20 20l-20-20l-20 20z " fill="rgba(247, 250, 252,1)"/>
      <path d="M-20 32l20-20l20 20l20-20l20 20l20-20l20 20v-4l-20-20l-20 20l-20-20l-20 20l-20-20l-20 20zM-20-8l20-20l20 20l20-20l20 20l20-20l20 20v-4l-20-20l-20 20l-20-20l-20 20l-20-20l-20 20zM-20 72l20-20l20 20l20-20l20 20l20-20l20 20v-4l-20-20l-20 20l-20-20l-20 20l-20-20l-20 20z " fill="rgba(236, 201, 75,1)"/>
      <path d="M-20 32l20-20l20 20l20-20l20 20l20-20l20 20v-4l-20-20l-20 20l-20-20l-20 20l-20-20l-20 20zM-20-8l20-20l20 20l20-20l20 20l20-20l20 20v-4l-20-20l-20 20l-20-20l-20 20l-20-20l-20 20zM-20 72l20-20l20 20l20-20l20 20l20-20l20 20v-4l-20-20l-20 20l-20-20l-20 20l-20-20l-20 20z " fill="rgba(247, 250, 252,1)"/>
    </pattern>
  </defs>
  <rect fill="url(#doodad)" height="200%" width="200%"/>
</svg>
